<?xml version="1.0" encoding="utf-8"?>
<!-- Generator: Adobe Illustrator 23.0.3, SVG Export Plug-In . SVG Version: 6.00 Build 0)  -->
<svg version="1.1" xmlns="http://www.w3.org/2000/svg" xmlns:xlink="http://www.w3.org/1999/xlink" x="0px" y="0px"
	 viewBox="0 0 256 256" style="enable-background:new 0 0 256 256;" xml:space="preserve">
<style type="text/css">
	.st0{fill:#878787;}
	.st1{fill:#F2E1D6;}
	.st2{fill:#FFFFFF;}
	.st3{fill:#F0C020;}
	.st4{fill:#F9E5AF;}
	.st5{fill:#72C1E8;}
	.st6{fill:#C5E5FF;}
	.st7{fill:#13BF6D;}
	.st8{fill:#76FFBA;}
	.st9{fill:#EFEFEF;}
	.st10{fill:#FC5D3D;}
	.st11{fill:#FFCBC2;}
	.st12{fill:#FFB69F;}
	.st13{fill:#AFAFAF;}
	.st14{fill:#7C7B7A;}
	.st15{fill:#D6C0B4;}
	.st16{fill:#7A7380;}
	.st17{fill:#F0AB20;}
	.st18{fill:#FBE0E2;}
	.st19{fill:#4C4945;}
	.st20{fill:#68B0D4;}
	.st21{fill:#B35034;}
	.st22{fill:#EDAF85;}
	.st23{fill:#139C6D;}
</style>
<g id="Layer_2">
</g>
<g id="Layer_1">
	<g>
		<g>
			<g>
				<g>
					<path class="st5" d="M250.13,84.48v161.514H5.87V20.62h32.38v32.051c0,2.761,2.239,5,5,5h100.164c2.761,0,5-2.239,5-5V20.62
						h37.835L250.13,84.48z"/>
				</g>
				<g>
					<path class="st6" d="M18.75,235.23c-1.381,0-2.5-1.119-2.5-2.5v-4.413c0-1.381,1.119-2.5,2.5-2.5s2.5,1.119,2.5,2.5v4.413
						C21.25,234.111,20.131,235.23,18.75,235.23z M18.75,220.817c-1.381,0-2.5-1.119-2.5-2.5v-179c0-1.381,1.119-2.5,2.5-2.5
						s2.5,1.119,2.5,2.5v179C21.25,219.698,20.131,220.817,18.75,220.817z"/>
				</g>
				<g>
					<path class="st9" d="M43.25,10.005c-2.761,0-5,2.239-5,5v5.615v32.051c0,2.761,2.239,5,5,5h100.164c2.761,0,5-2.239,5-5V20.62
						v-5.615c0-2.761-2.239-5-5-5H43.25z"/>
				</g>
				<rect x="47.257" y="204.505" class="st9" width="161.486" height="41.5"/>
				<g>
					<g>
						<path class="st6" d="M235.604,227.04c-1.381,0-2.5-1.119-2.5-2.5v-3.052c0-1.381,1.119-2.5,2.5-2.5s2.5,1.119,2.5,2.5v3.052
							C238.104,225.921,236.985,227.04,235.604,227.04z M235.604,213.988c-1.381,0-2.5-1.119-2.5-2.5V93.486l-52.989-52.974
							c-0.977-0.976-0.977-2.559,0-3.535c0.977-0.977,2.559-0.977,3.536,0l53.722,53.705c0.469,0.469,0.732,1.104,0.732,1.768
							v119.038C238.104,212.869,236.985,213.988,235.604,213.988z"/>
					</g>
				</g>
				<rect x="122.559" y="20.62" class="st19" width="12.608" height="26.436"/>
			</g>
			<g>
				<g>
					<path class="st19" d="M175.654,131.655c0,14.848-6.787,28.103-17.444,36.849c-8.233,6.738-18.744,10.805-30.21,10.805
						s-21.977-4.068-30.21-10.805c-10.658-8.746-17.444-22.002-17.444-36.849c0-26.338,21.34-47.679,47.654-47.679
						S175.654,105.316,175.654,131.655z"/>
				</g>
				<g>
					<path class="st10" d="M158.21,165.638v2.866c-8.233,6.738-18.744,10.805-30.21,10.805s-21.977-4.068-30.21-10.805v-2.866
						c0-13.525,10.952-24.501,24.501-24.501h11.418C147.258,141.137,158.21,152.113,158.21,165.638z"/>
				</g>
				<g>
					<g>
						<path class="st11" d="M146.221,164.618c-0.031-0.422-0.084-0.847-0.157-1.261c-0.24-1.359,0.668-2.656,2.028-2.896
							c1.359-0.244,2.656,0.669,2.896,2.028c0.102,0.579,0.176,1.172,0.219,1.761c0.102,1.377-0.933,2.575-2.31,2.677
							C147.551,167.033,146.324,166.018,146.221,164.618z M142.079,156.208c-2.306-2.069-5.278-3.209-8.37-3.209
							c-1.381,0-2.5-1.119-2.5-2.5s1.119-2.5,2.5-2.5c4.327,0,8.485,1.594,11.709,4.488c1.027,0.922,1.113,2.503,0.19,3.53
							C144.688,157.044,143.107,157.131,142.079,156.208z"/>
					</g>
				</g>
				<g>
					<path class="st3" d="M143.895,99.519l-5.831,3.043c-1.498,0.782-3.163,1.19-4.853,1.19h-11.685
						c-4.335,0-7.042,3.652-7.042,8.16v4.429h27.045l0,0C145.544,112.066,146.857,105.621,143.895,99.519z"/>
				</g>
				<g>
					<path class="st12" d="M128.015,141.137L128.015,141.137c-7.464,0-13.53-6.051-13.53-13.515v-11.279h27.045v11.279
						C141.53,135.086,135.479,141.137,128.015,141.137z"/>
				</g>
			</g>
		</g>
		<path d="M73.301,222.755c-1.381,0-2.5,1.119-2.5,2.5s1.119,2.5,2.5,2.5H182.7c1.381,0,2.5-1.119,2.5-2.5s-1.119-2.5-2.5-2.5
			H73.301z"/>
		<path d="M188.02,18.854c-0.47-0.47-1.11-0.74-1.77-0.74h-35.335v-3.109c0-4.136-3.364-7.5-7.5-7.5H43.25
			c-4.136,0-7.5,3.364-7.5,7.5v3.119l-29.88-0.01c-1.363,0-2.5,1.123-2.5,2.5v39.311c0,1.38,1.12,2.5,2.5,2.5
			c1.38,0,2.5-1.12,2.5-2.5v-36.8h27.38v29.547c0,4.136,3.364,7.5,7.5,7.5h100.165c4.136,0,7.5-3.364,7.5-7.5V23.125h34.295
			l62.42,62.39v157.98h-36.39v-8.98c0-1.37-1.12-2.5-2.5-2.5s-2.5,1.13-2.5,2.5v8.98H49.76v-36.49h156.48v7.51
			c0,1.38,1.12,2.5,2.5,2.5s2.5-1.12,2.5-2.5v-10.01c0-1.387-1.117-2.5-2.5-2.5H47.26c-1.365,0-2.5,1.096-2.5,2.5v38.99H8.37V79.925
			c0-1.37-1.12-2.5-2.5-2.5c-1.38,0-2.5,1.13-2.5,2.5v166.07c0,1.368,1.098,2.5,2.5,2.5h244.26c1.389,0,2.5-1.118,2.5-2.5V84.484
			c0-0.67-0.26-1.3-0.73-1.77L188.02,18.854z M145.915,52.672c0,1.379-1.122,2.5-2.5,2.5H43.25c-1.378,0-2.5-1.121-2.5-2.5V15.005
			c0-1.379,1.122-2.5,2.5-2.5h100.165c1.378,0,2.5,1.121,2.5,2.5V52.672z"/>
		<path d="M5.87,72.425c1.38,0,2.5-1.12,2.5-2.5c0-1.37-1.12-2.49-2.5-2.49c-1.38,0-2.5,1.12-2.5,2.49
			C3.37,71.305,4.49,72.425,5.87,72.425z"/>
		<path d="M208.74,222.024c-1.38,0-2.5,1.12-2.5,2.49c0,1.38,1.12,2.5,2.5,2.5s2.5-1.12,2.5-2.5
			C211.24,223.145,210.12,222.024,208.74,222.024z"/>
		<path d="M135.167,18.12h-12.608c-1.381,0-2.5,1.119-2.5,2.5v26.437c0,1.381,1.119,2.5,2.5,2.5h12.608c1.381,0,2.5-1.119,2.5-2.5
			V20.62C137.667,19.239,136.548,18.12,135.167,18.12z M132.667,44.557h-7.608V23.12h7.608V44.557z"/>
		<path d="M128,86.475c8.08,0,16,2.16,22.91,6.24c1.15,0.67,2.75,0.25,3.42-0.891c0.714-1.195,0.298-2.716-0.88-3.42
			c-7.68-4.529-16.48-6.93-25.45-6.93c-27.68,0-50.15,22.428-50.15,50.18C77.832,159.49,100.46,181.81,128,181.81
			c27.418,0,50.168-22.216,50.15-50.155c0.01-10.529-3.21-20.6-9.31-29.13c-0.77-1.08-2.4-1.359-3.49-0.58
			c-1.085,0.764-1.405,2.327-0.58,3.49h0.01c5.48,7.68,8.37,16.75,8.37,26.22c0,11.754-4.529,22.878-12.578,31.248
			c-1.194-11.818-10.042-21.409-21.495-23.728c3.045-2.917,4.953-7.013,4.953-11.553v-10.364c4.072-4.919,5.375-12.096,2.115-18.827
			c-0.613-1.268-2.152-1.776-3.407-1.127l-5.832,3.044c-1.136,0.593-2.414,0.906-3.696,0.906h-11.685
			c-5.529,0-9.542,4.483-9.542,10.66c0,1.541,0.015,7.879,0.015,15.708c0,4.538,1.906,8.632,4.948,11.549
			c-11.468,2.312-20.328,11.91-21.52,23.74c-8.047-8.371-12.578-19.499-12.578-31.255C82.85,106.692,103.025,86.475,128,86.475z
			 M116.999,118.843h22.031v8.778c0,6.074-4.941,11.016-11.015,11.016c-6.074,0-11.016-4.941-11.016-11.016V118.843z
			 M116.985,111.913c0-2.817,1.404-5.66,4.542-5.66h11.685c2.084,0,4.163-0.51,6.01-1.474l3.358-1.753
			c1,3.715,0.197,7.765-2.207,10.816h-23.387V111.913z M122.291,143.637h11.418c12.131,0,22.001,9.869,22.001,22.001v1.641
			c-8.053,6.281-17.916,9.531-27.71,9.531c-9.878,0-19.689-3.289-27.71-9.524v-1.648C100.29,153.506,110.16,143.637,122.291,143.637
			z"/>
		<path d="M162.04,98.194c0.898-0.998,0.897-2.557-0.15-3.54c-0.98-0.89-2.64-0.819-3.54,0.16c-0.93,1.01-0.86,2.601,0.15,3.53
			C159.562,99.294,161.118,99.196,162.04,98.194z"/>
	</g>
</g>
</svg>
